<?xml version="1.0" encoding="UTF-8" standalone="no"?>
<!-- Created with Inkscape (http://www.inkscape.org/) -->

<svg
   width="3000"
   height="1000"
   viewBox="0 0 793.74996 264.58332"
   version="1.1"
   id="svg1"
   xml:space="preserve"
   inkscape:version="1.3.2 (091e20e, 2023-11-25, custom)"
   sodipodi:docname="ATC24-Radar-logo.svg"
   inkscape:export-filename="ATC24-Radar-logo.svg"
   inkscape:export-xdpi="96"
   inkscape:export-ydpi="96"
   xmlns:inkscape="http://www.inkscape.org/namespaces/inkscape"
   xmlns:sodipodi="http://sodipodi.sourceforge.net/DTD/sodipodi-0.dtd"
   xmlns="http://www.w3.org/2000/svg"
   xmlns:svg="http://www.w3.org/2000/svg"><sodipodi:namedview
     id="namedview1"
     pagecolor="#505050"
     bordercolor="#eeeeee"
     borderopacity="1"
     inkscape:showpageshadow="false"
     inkscape:pageopacity="0"
     inkscape:pagecheckerboard="false"
     inkscape:deskcolor="#505050"
     inkscape:document-units="px"
     labelstyle="default"
     inkscape:zoom="0.25"
     inkscape:cx="1920"
     inkscape:cy="46"
     inkscape:window-width="1920"
     inkscape:window-height="1017"
     inkscape:window-x="-8"
     inkscape:window-y="-8"
     inkscape:window-maximized="1"
     inkscape:current-layer="layer1" /><defs
     id="defs1" /><g
     inkscape:label="Camada 1"
     inkscape:groupmode="layer"
     id="layer1"><g
       id="g1"
       transform="matrix(1.1111111,0,0,1.1111111,-1.4699072,-14.69908)"
       style="stroke-width:0.9"><circle
         style="fill:#0068c6;fill-opacity:1;stroke:none;stroke-width:0.238125;stroke-linecap:round;stroke-linejoin:round;stroke-dasharray:none;stroke-dashoffset:0"
         id="path1"
         cx="132.29167"
         cy="132.29167"
         r="119.0625" /><path
         style="fill:none;fill-opacity:1;stroke:#ffffff;stroke-width:2.38125;stroke-linecap:round;stroke-linejoin:round;stroke-dasharray:none;stroke-dashoffset:0;stroke-opacity:1"
         id="circle1"
         sodipodi:type="arc"
         sodipodi:cx="132.29167"
         sodipodi:cy="132.29166"
         sodipodi:rx="111.125"
         sodipodi:ry="111.12499"
         sodipodi:start="4.0685258"
         sodipodi:end="3.1415927"
         sodipodi:arc-type="slice"
         d="M 65.584488,43.41581 A 111.125,111.12499 0 0 1 203.47156,46.95592 111.125,111.12499 0 0 1 231.69389,181.97027 111.125,111.12499 0 0 1 106.77016,240.44625 111.125,111.12499 0 0 1 21.166672,132.29166 H 132.29167 Z" /><path
         style="fill:none;fill-opacity:1;stroke:#ffffff;stroke-width:2.38123;stroke-linecap:round;stroke-linejoin:round;stroke-dasharray:none;stroke-dashoffset:0;stroke-opacity:1"
         id="ellipse2"
         sodipodi:type="arc"
         sodipodi:cx="132.29167"
         sodipodi:cy="132.29167"
         sodipodi:rx="84.666679"
         sodipodi:ry="84.666679"
         sodipodi:start="4.0704847"
         sodipodi:end="3.1405187"
         sodipodi:arc-type="slice"
         d="M 81.599887,64.477296 A 84.666679,84.666679 0 0 1 186.602,67.339116 84.666679,84.666679 0 0 1 208.00995,170.17556 84.666679,84.666679 0 0 1 112.87273,214.70133 84.666679,84.666679 0 0 1 47.625041,132.3826 l 84.666629,-0.0909 z" /><path
         style="fill:none;fill-opacity:1;stroke:#ffffff;stroke-width:2.38123;stroke-linecap:round;stroke-linejoin:round;stroke-dasharray:none;stroke-dashoffset:0;stroke-opacity:1"
         id="circle2"
         sodipodi:type="arc"
         sodipodi:cx="132.29167"
         sodipodi:cy="132.29167"
         sodipodi:rx="58.208344"
         sodipodi:ry="58.208344"
         sodipodi:start="4.0723505"
         sodipodi:end="3.1401459"
         sodipodi:arc-type="slice"
         d="m 97.528118,85.604344 a 58.208344,58.208344 0 0 1 72.160202,2.081252 58.208344,58.208344 0 0 1 14.64021,70.690104 58.208344,58.208344 0 0 1 -65.39797,30.57012 58.208344,58.208344 0 0 1 -44.847171,-56.56994 l 58.208281,-0.0842 z" /><path
         style="fill:none;fill-opacity:1;stroke:#ffffff;stroke-width:2.38123;stroke-linecap:round;stroke-linejoin:round;stroke-dasharray:none;stroke-dashoffset:0;stroke-opacity:1"
         id="circle3"
         sodipodi:type="arc"
         sodipodi:cx="132.29167"
         sodipodi:cy="132.29167"
         sodipodi:rx="31.750011"
         sodipodi:ry="31.750011"
         sodipodi:start="4.0780371"
         sodipodi:end="3.1395817"
         sodipodi:arc-type="slice"
         d="m 113.47485,106.71844 a 31.750011,31.750011 0 0 1 39.31516,1.32697 31.750011,31.750011 0 0 1 7.84888,38.54656 31.750011,31.750011 0 0 1 -35.66595,16.59468 31.750011,31.750011 0 0 1 -24.43122,-30.83113 l 31.74995,-0.0639 z" /><path
         style="display:inline;fill:#ffffff;fill-opacity:1;stroke:none;stroke-width:0.238125;stroke-linecap:round;stroke-linejoin:round;stroke-dasharray:none;stroke-dashoffset:0"
         id="circle4"
         d="m 14.129213,146.90373 a 119.0625,119.0625 0 0 1 0.250631,-31.12508 l 117.911826,16.51302 z"
         sodipodi:type="arc"
         sodipodi:arc-type="slice"
         sodipodi:start="3.0185565"
         sodipodi:end="3.2807332"
         sodipodi:ry="119.0625"
         sodipodi:rx="119.0625"
         sodipodi:cy="132.29167"
         sodipodi:cx="132.29167" /><ellipse
         style="fill:#ffffff;fill-opacity:1;stroke:none;stroke-width:0;stroke-linecap:round;stroke-linejoin:round;stroke-dasharray:none;stroke-dashoffset:0;stroke-opacity:1"
         id="ellipse1"
         ry="6.614583"
         rx="6.6145835"
         cy="132.29167"
         cx="132.29167" /></g><g
       id="g10"
       transform="matrix(1.6196345,0,0,1.6196345,-222.68333,-27.243151)"
       style="stroke-width:0.617423"><path
         style="fill:#ffff00;fill-opacity:1;stroke:none;stroke-width:0;stroke-linecap:round;stroke-linejoin:round;stroke-dasharray:none;stroke-dashoffset:0;stroke-opacity:1"
         d="m 340.31167,79.493529 v -22.91241 c -0.0813,-5.376711 2.68337,-6.840081 6.65035,-6.650339 h 25.25339 c 3.97933,-0.04388 5.72509,1.991787 5.68766,5.687647 v 23.95881 c 0.0179,1.339135 -1.61407,4.497288 -2.41735,6.220334 L 349.40096,140.4403 h 28.00713 v 6.92485 h -38.31833 v -4.75728 l 28.38642,-58.879213 c 0.65901,-1.441269 1.27149,-2.896374 1.2736,-5.241331 V 57.228127 h -19.93664 v 22.265402 z"
         id="path7"
         sodipodi:nodetypes="cccccccccccccccccc" /><path
         style="fill:#ffff00;fill-opacity:1;stroke:none;stroke-width:0;stroke-linecap:round;stroke-linejoin:round;stroke-dasharray:none;stroke-dashoffset:0;stroke-opacity:1"
         d="m 411.18705,50.21432 h 7.85423 l -22.39901,64.7152 h 18.69191 V 79.940758 h 7.60172 V 114.8948 h 7.34139 v 7.0629 h -7.25981 v 25.55077 h -7.63333 v -25.59986 h -27.63703 v -5.20342 z"
         id="path8" /><path
         style="fill:#ffffff;fill-opacity:1;stroke:#737373;stroke-width:0;stroke-linecap:round;stroke-linejoin:round;stroke-dasharray:none"
         d="m 440.27829,123.86244 v 14.64025 c 0.3647,6.37346 3.95988,8.85567 9.6244,8.84526 h 24.12503 c 5.63569,0.24801 10.07732,-1.39138 10.46377,-9.44057 V 97.44323 c 0.0445,-5.68808 -2.57721,-9.41737 -10.86345,-8.98493 H 451.10176 V 61.11183 h 22.47021 v 12.0705 h 10.96569 V 60.83864 c 0.25466,-6.02202 0.78657,-12.2014 -11.24829,-11.24829 H 450.1745 c -5.63774,-0.13778 -10.83772,0.45404 -9.94418,11.20173 v 27.88206 c -0.84719,7.7074 3.00219,11.18789 10.67959,11.22316 h 22.47831 v 35.96006 h -22.35041 v -12.00291 z"
         id="path2"
         sodipodi:nodetypes="ccccccccccccccccccccccc" /><path
         id="path9"
         style="fill:#ffffff;fill-opacity:1;stroke:#737373;stroke-width:0;stroke-linecap:round;stroke-linejoin:round;stroke-dasharray:none"
         d="m 497.78663,50.30802 v 96.99615 h 10.73836 V 109.8832 h 20.94497 c 6.23621,-3.5e-4 10.61101,-4.4689 10.60194,-10.60142 V 61.06344 c -0.006,-5.58952 -4.79633,-10.78192 -10.97349,-10.75542 z m 31.38154,10.76782 V 99.12778 H 508.55238 V 61.08773 Z" /><path
         style="fill:#ffffff;fill-opacity:1;stroke:#737373;stroke-width:0;stroke-linecap:round;stroke-linejoin:round;stroke-dasharray:none"
         d="m 545.57697,50.30647 22.69315,50.2303 v 46.76843 h 11.42365 V 99.87451 l 22.14706,-49.50673 h -11.49139 l -16.32976,35.42593 -17.01186,-35.4583 z"
         id="path10" /></g></g></svg>
