<?xml version="1.0" encoding="UTF-8" standalone="no"?>
<!-- Created with Inkscape (http://www.inkscape.org/) -->

<svg
   width="2500"
   height="1000"
   viewBox="0 0 661.4583 264.58332"
   version="1.1"
   id="svg1"
   xml:space="preserve"
   inkscape:version="1.3.2 (091e20e, 2023-11-25, custom)"
   sodipodi:docname="ATC24-Radar-logo.svg"
   inkscape:export-filename="ATC24-Radar-logo.svg"
   inkscape:export-xdpi="96"
   inkscape:export-ydpi="96"
   xmlns:inkscape="http://www.inkscape.org/namespaces/inkscape"
   xmlns:sodipodi="http://sodipodi.sourceforge.net/DTD/sodipodi-0.dtd"
   xmlns="http://www.w3.org/2000/svg"
   xmlns:svg="http://www.w3.org/2000/svg"><sodipodi:namedview
     id="namedview1"
     pagecolor="#505050"
     bordercolor="#eeeeee"
     borderopacity="1"
     inkscape:showpageshadow="false"
     inkscape:pageopacity="0"
     inkscape:pagecheckerboard="false"
     inkscape:deskcolor="#505050"
     inkscape:document-units="px"
     labelstyle="default"
     inkscape:zoom="0.36569515"
     inkscape:cx="1184.0463"
     inkscape:cy="381.46527"
     inkscape:window-width="1920"
     inkscape:window-height="1017"
     inkscape:window-x="-8"
     inkscape:window-y="-8"
     inkscape:window-maximized="1"
     inkscape:current-layer="layer1" /><defs
     id="defs1" /><g
     inkscape:label="Camada 1"
     inkscape:groupmode="layer"
     id="layer1"><g
       id="g1"
       transform="matrix(1.1111111,0,0,1.1111111,-1.4699072,-14.69908)"
       style="stroke-width:0.9"><circle
         style="fill:#0068c6;fill-opacity:1;stroke:none;stroke-width:0.238125;stroke-linecap:round;stroke-linejoin:round;stroke-dasharray:none;stroke-dashoffset:0"
         id="path1"
         cx="132.29167"
         cy="132.29167"
         r="119.0625" /><path
         style="fill:none;fill-opacity:1;stroke:#ffffff;stroke-width:2.38125;stroke-linecap:round;stroke-linejoin:round;stroke-dasharray:none;stroke-dashoffset:0;stroke-opacity:1"
         id="circle1"
         sodipodi:type="arc"
         sodipodi:cx="132.29167"
         sodipodi:cy="132.29166"
         sodipodi:rx="111.125"
         sodipodi:ry="111.12499"
         sodipodi:start="4.0685258"
         sodipodi:end="3.1415927"
         sodipodi:arc-type="slice"
         d="M 65.584488,43.41581 A 111.125,111.12499 0 0 1 203.47156,46.95592 111.125,111.12499 0 0 1 231.69389,181.97027 111.125,111.12499 0 0 1 106.77016,240.44625 111.125,111.12499 0 0 1 21.166672,132.29166 H 132.29167 Z" /><path
         style="fill:none;fill-opacity:1;stroke:#ffffff;stroke-width:2.38123;stroke-linecap:round;stroke-linejoin:round;stroke-dasharray:none;stroke-dashoffset:0;stroke-opacity:1"
         id="ellipse2"
         sodipodi:type="arc"
         sodipodi:cx="132.29167"
         sodipodi:cy="132.29167"
         sodipodi:rx="84.666679"
         sodipodi:ry="84.666679"
         sodipodi:start="4.0704847"
         sodipodi:end="3.1405187"
         sodipodi:arc-type="slice"
         d="M 81.599887,64.477296 A 84.666679,84.666679 0 0 1 186.602,67.339116 84.666679,84.666679 0 0 1 208.00995,170.17556 84.666679,84.666679 0 0 1 112.87273,214.70133 84.666679,84.666679 0 0 1 47.625041,132.3826 l 84.666629,-0.0909 z" /><path
         style="fill:none;fill-opacity:1;stroke:#ffffff;stroke-width:2.38123;stroke-linecap:round;stroke-linejoin:round;stroke-dasharray:none;stroke-dashoffset:0;stroke-opacity:1"
         id="circle2"
         sodipodi:type="arc"
         sodipodi:cx="132.29167"
         sodipodi:cy="132.29167"
         sodipodi:rx="58.208344"
         sodipodi:ry="58.208344"
         sodipodi:start="4.0723505"
         sodipodi:end="3.1401459"
         sodipodi:arc-type="slice"
         d="m 97.528118,85.604344 a 58.208344,58.208344 0 0 1 72.160202,2.081252 58.208344,58.208344 0 0 1 14.64021,70.690104 58.208344,58.208344 0 0 1 -65.39797,30.57012 58.208344,58.208344 0 0 1 -44.847171,-56.56994 l 58.208281,-0.0842 z" /><path
         style="fill:none;fill-opacity:1;stroke:#ffffff;stroke-width:2.38123;stroke-linecap:round;stroke-linejoin:round;stroke-dasharray:none;stroke-dashoffset:0;stroke-opacity:1"
         id="circle3"
         sodipodi:type="arc"
         sodipodi:cx="132.29167"
         sodipodi:cy="132.29167"
         sodipodi:rx="31.750011"
         sodipodi:ry="31.750011"
         sodipodi:start="4.0780371"
         sodipodi:end="3.1395817"
         sodipodi:arc-type="slice"
         d="m 113.47485,106.71844 a 31.750011,31.750011 0 0 1 39.31516,1.32697 31.750011,31.750011 0 0 1 7.84888,38.54656 31.750011,31.750011 0 0 1 -35.66595,16.59468 31.750011,31.750011 0 0 1 -24.43122,-30.83113 l 31.74995,-0.0639 z" /><path
         style="display:inline;fill:#ffffff;fill-opacity:1;stroke:none;stroke-width:0.238125;stroke-linecap:round;stroke-linejoin:round;stroke-dasharray:none;stroke-dashoffset:0"
         id="circle4"
         d="m 14.129213,146.90373 a 119.0625,119.0625 0 0 1 0.250631,-31.12508 l 117.911826,16.51302 z"
         sodipodi:type="arc"
         sodipodi:arc-type="slice"
         sodipodi:start="3.0185565"
         sodipodi:end="3.2807332"
         sodipodi:ry="119.0625"
         sodipodi:rx="119.0625"
         sodipodi:cy="132.29167"
         sodipodi:cx="132.29167" /><ellipse
         style="stroke-width:0;fill:#ffffff;fill-opacity:1;stroke:none;stroke-linecap:round;stroke-linejoin:round;stroke-dasharray:none;stroke-dashoffset:0;stroke-opacity:1"
         id="ellipse1"
         ry="6.614583"
         rx="6.6145835"
         cy="132.29167"
         cx="132.29167" /></g><g
       id="g22"
       transform="matrix(1.1111111,0,0,1.1111111,13.603506,-5.8796364)"
       style="stroke-width:0.9"
       inkscape:export-filename=".\g22.png"
       inkscape:export-xdpi="96"
       inkscape:export-ydpi="96"><g
         id="g8"
         transform="translate(14.706867,-60.257413)"
         style="stroke-width:0.9"><path
           style="fill:#ffffff;fill-opacity:1;stroke:none;stroke-width:0;stroke-linecap:round;stroke-linejoin:round;stroke-dasharray:none;stroke-dashoffset:0;stroke-opacity:1"
           d="m 276.33479,177.07855 17.44998,-90.298854 14.77238,-0.06395 17.2475,90.408024 h -13.92754 l -2.80818,-17.84368 -16.23082,0.0771 1.60723,-10.72426 12.95067,0.0171 -6.37151,-40.48564 -10.75195,69.19997 z"
           id="path4"
           sodipodi:nodetypes="cccccccccccc" /><path
           style="fill:#ffffff;fill-opacity:1;stroke:none;stroke-width:0;stroke-linecap:round;stroke-linejoin:round;stroke-dasharray:none;stroke-dashoffset:0;stroke-opacity:1"
           d="m 329.80444,87.19537 h 42.46254 V 98.378569 H 357.49202 V 176.62636 H 344.5028 V 98.434523 h -14.69836 z"
           id="path5"
           sodipodi:nodetypes="ccccccccc" /><path
           style="fill:#ffffff;fill-opacity:1;stroke:none;stroke-width:0;stroke-linecap:round;stroke-linejoin:round;stroke-dasharray:none;stroke-dashoffset:0;stroke-opacity:1"
           d="M 423.22949,115.64821 H 410.68115 V 97.809222 h -18.22334 v 68.316028 h 17.77929 v -18.89713 h 13.10968 v 23.82497 c 0.0902,3.884 -2.56445,5.57982 -5.56974,5.56975 h -32.81432 c -2.66883,-0.0451 -4.68643,-1.18702 -5.07409,-5.0741 V 93.682966 c 0.009,-3.951867 2.79413,-6.498064 6.59548,-6.595477 h 29.44248 c 4.21074,-0.0617 7.49725,3.181031 7.46922,7.469213 z"
           id="path6"
           sodipodi:nodetypes="ccccccccccccccccc" /><path
           style="fill:#ffff00;fill-opacity:1;stroke:none;stroke-width:0;stroke-linecap:round;stroke-linejoin:round;stroke-dasharray:none;stroke-dashoffset:0;stroke-opacity:1"
           d="M 434.82575,114.02218 V 92.870902 c -0.0751,-4.963439 2.47711,-6.314327 6.13918,-6.139167 h 23.31233 c 3.67345,-0.0405 5.28503,1.838684 5.25047,5.250471 v 22.117244 c 0.0166,1.23621 -1.49,4.15161 -2.23154,5.74222 l -24.07979,50.44269 h 25.8544 v 6.39258 h -35.37304 v -4.39162 l 26.20454,-54.35354 c 0.60835,-1.33049 1.17376,-2.67375 1.1757,-4.83846 V 93.468175 h -18.40423 v 20.554005 z"
           id="path7"
           sodipodi:nodetypes="cccccccccccccccccc" /><path
           style="fill:#ffff00;fill-opacity:1;stroke:none;stroke-width:0;stroke-linecap:round;stroke-linejoin:round;stroke-dasharray:none;stroke-dashoffset:0;stroke-opacity:1"
           d="m 499.55958,87.182699 h 7.23509 l -20.63332,59.613761 h 17.21844 v -32.23063 h 7.00249 v 32.19865 h 6.76267 v 6.50614 h -6.68753 v 23.53662 h -7.03159 V 153.2254 h -25.45844 v -4.79324 z"
           id="path8" /></g><g
         id="g21"
         transform="translate(-0.36175395)"
         style="stroke-width:0.9"><path
           style="fill:#ffffff;fill-opacity:1;stroke:none;stroke-width:0;stroke-linecap:round;stroke-linejoin:round;stroke-dasharray:none;stroke-dashoffset:0;stroke-opacity:1"
           d="m 344.91325,221.36788 17.44998,-88.67097 14.77238,-0.0639 17.2475,88.78014 h -13.92754 l -2.80818,-17.84368 -16.23082,0.0771 1.60723,-10.72426 12.95067,0.0171 -6.37151,-40.48564 -10.75195,69.19997 z"
           id="path20"
           sodipodi:nodetypes="cccccccccccc" /><path
           id="path16"
           style="display:inline;fill:#ffffff;fill-opacity:1;stroke:none;stroke-width:0;stroke-linecap:round;stroke-linejoin:round;stroke-dasharray:none;stroke-dashoffset:0;stroke-opacity:1"
           d="m 329.31839,132.70559 c -0.28536,-0.006 -0.58229,-0.002 -0.8909,0.0129 h -36.76313 v 88.8106 h 11.37243 V 184.7205 h 8.72712 l 13.47566,36.83134 h 11.91503 l -13.00024,-36.85408 h 4.54443 c 3.61008,-0.29462 6.7264,-1.35096 6.46627,-7.61917 v -37.62251 c 0.1232,-4.16567 -1.56631,-6.65532 -5.84667,-6.75049 z m -26.2139,9.63352 h 20.03237 v 32.36547 h -20.03237 z" /><path
           id="path18"
           style="fill:#ffffff;fill-opacity:1;stroke:none;stroke-width:0;stroke-linecap:round;stroke-linejoin:round;stroke-dasharray:none;stroke-dashoffset:0;stroke-opacity:1"
           d="m 404.73446,132.67303 v 88.90104 h 36.24378 l 7.27707,-7.21455 v -75.22125 l -6.61872,-6.46524 z m 12.07368,9.8547 h 19.39261 v 68.92189 h -19.39261 z" /><path
           id="path19"
           style="display:inline;fill:#ffffff;fill-opacity:1;stroke:none;stroke-width:0;stroke-linecap:round;stroke-linejoin:round;stroke-dasharray:none;stroke-dashoffset:0;stroke-opacity:1"
           d="m 556.21181,132.70559 c -0.28536,-0.006 -0.58229,-0.002 -0.8909,0.0129 h -36.76313 v 88.8106 h 11.37243 V 184.7205 h 8.72712 l 13.47566,36.83134 h 11.91503 l -13.00024,-36.85408 h 4.54443 c 3.61008,-0.29462 6.7264,-1.35096 6.46627,-7.61917 v -37.62251 c 0.1232,-4.16567 -1.56631,-6.65532 -5.84667,-6.75049 z m -26.2139,9.63352 h 20.03237 v 32.36547 h -20.03237 z" /><path
           style="fill:#ffffff;fill-opacity:1;stroke:none;stroke-width:0;stroke-linecap:round;stroke-linejoin:round;stroke-dasharray:none;stroke-dashoffset:0;stroke-opacity:1"
           d="m 458.14224,221.36788 17.44998,-88.67097 14.77238,-0.0639 17.2475,88.78014 h -13.92754 l -2.80818,-17.84368 -16.23082,0.0771 1.60723,-10.72426 12.95067,0.0171 -6.37151,-40.48564 -10.75195,69.19997 z"
           id="path22"
           sodipodi:nodetypes="cccccccccccc" /></g></g></g></svg>
